<svg width="36" height="31" viewBox="0 0 36 31" fill="none" xmlns="http://www.w3.org/2000/svg"><path d="M31.5999 3.19999C29.5999 2.89999 27.0999 3.79999 24.8999 4.89999C24.9999 3.99999 24.9999 3.39999 24.7999 2.89999C24.2999 0.999987 22.2999 1.49999 19.8999 1.89999C18.0999 2.09999 15.7999 3.89999 14.0999 5.59999C13.9999 5.49999 13.9999 5.39999 13.8999 5.39999C12.9999 4.69999 11.4999 4.79999 8.8999 5.89999C2.8999 8.49999 1.5999 14.1 1.3999 16.9C1.3999 17.7 1.3999 18.4 1.4999 18.6C2.4999 20.9 3.9999 18 5.8999 17.9C7.9999 17.8 9.9999 27 12.5999 28.4C14.6999 29.5 14.8999 24.9 14.8999 19.4C15.4999 19.3 16.1999 19.2 16.6999 19C17.8999 18.6 18.8999 23.2 21.0999 23.7C22.1999 24 22.9999 20.5 23.5999 16.4C24.8999 16.1 25.2999 18.4 27.2999 19.4C29.2999 20.4 32.5999 12.4 33.8999 8.69999C34.2999 7.59999 34.4999 6.69999 34.5999 5.99999C34.6999 4.19999 33.8999 3.49999 31.5999 3.19999Z" fill="white" stroke="white" stroke-width="3" stroke-miterlimit="10"></path><path d="M34.4999 5.89998C34.3999 6.59998 34.1999 7.49998 33.7999 8.59998C32.5999 12.4 29.1999 20.4 27.1999 19.4C25.1999 18.4 24.7999 16.1 23.4999 16.4C22.1999 16.7 21.3999 6.79998 21.3999 6.79998C22.1999 6.29998 23.3999 5.59998 24.7999 4.89998C26.9999 3.79998 29.5999 2.89998 31.4999 3.19998C33.8999 3.49998 34.6999 4.19998 34.4999 5.89998Z" fill="#C9AA8B"></path><path d="M34.5 5.89998C32.2 7.49998 28.8 8.99998 28 9.69998C26.6 10.8 24.3 10.2 23 9.69998C23 9.69998 23.9 7.19998 24.9 4.89998C27.1 3.79998 29.7 2.89998 31.6 3.19998C33.9 3.49998 34.7 4.19998 34.5 5.89998Z" fill="#FCE3C2"></path><path d="M34.4999 5.89998C34.3999 6.59998 34.1999 7.49998 33.7999 8.59998C32.5999 12.4 29.1999 20.4 27.1999 19.4C25.1999 18.4 24.7999 16.1 23.4999 16.4C22.1999 16.7 21.3999 6.79998 21.3999 6.79998C22.1999 6.29998 23.3999 5.59998 24.7999 4.89998C26.9999 3.79998 29.5999 2.89998 31.4999 3.19998C33.8999 3.49998 34.6999 4.19998 34.4999 5.89998Z" stroke="#292B35" stroke-width="1.5" stroke-miterlimit="10"></path><path d="M24.7999 5.19998C24.1999 9.79998 23.1999 24.2 20.9999 23.7C18.7999 23.2 17.7999 18.6 16.5999 19C15.2999 19.4 12.8999 19.7 12.5999 19.6C12.2999 19.5 11.3999 8.59998 11.3999 8.59998C12.2999 7.19998 16.8999 2.29998 19.9999 1.89998C22.3999 1.59998 24.3999 0.999978 24.8999 2.89998C24.8999 3.39998 24.9999 4.19998 24.7999 5.19998Z" fill="#C9AA8B"></path><path d="M24.7998 2.90012C22.2998 6.00012 18.7998 9.60012 18.0998 10.9001C16.9998 13.1001 13.2998 11.0001 11.2998 8.60012C12.1998 7.20012 16.7998 2.30012 19.8998 1.90012C22.2998 1.50012 24.2998 0.900121 24.7998 2.90012Z" fill="#FCE3C2"></path><path d="M24.7999 5.19998C24.1999 9.79998 23.1999 24.2 20.9999 23.7C18.7999 23.2 17.7999 18.6 16.5999 19C15.2999 19.4 12.8999 19.7 12.5999 19.6C12.2999 19.5 11.3999 8.59998 11.3999 8.59998C12.2999 7.19998 16.8999 2.29998 19.9999 1.89998C22.3999 1.59998 24.3999 0.999978 24.8999 2.89998C24.8999 3.39998 24.9999 4.19998 24.7999 5.19998Z" stroke="#292B35" stroke-width="1.5" stroke-miterlimit="10"></path><path d="M14.8 15.5999C14.9 22.3999 15.2 29.7999 12.6 28.3999C10 26.9999 8.00002 17.7999 6.10002 17.8999C4.20002 17.9999 2.70002 20.8999 1.70002 18.5999C1.60002 18.3999 1.50002 17.7999 1.60002 16.8999C1.70002 14.0999 3.00002 8.49992 9.10002 5.89992C11.7 4.79992 13.2 4.69992 14.1 5.39992C15.6 6.69992 14.7 10.9999 14.8 15.5999Z" fill="#C9AA8B"></path><path d="M13.8999 5.40003C12.9999 8.80003 10.7999 12.9 9.4999 13.4C7.7999 14.3 6.4999 11.2 4.0999 14.5C3.2999 15.7 2.2999 16.4 1.3999 16.9C1.4999 14.1 2.7999 8.50003 8.8999 5.90003C11.5999 4.70003 13.0999 4.70003 13.8999 5.40003Z" fill="#FCE3C2"></path><path d="M14.8 15.5999C14.9 22.3999 15.2 29.7999 12.6 28.3999C10 26.9999 8.00002 17.7999 6.10002 17.8999C4.20002 17.9999 2.70002 20.8999 1.70002 18.5999C1.60002 18.3999 1.50002 17.7999 1.60002 16.8999C1.70002 14.0999 3.00002 8.49992 9.10002 5.89992C11.7 4.79992 13.2 4.69992 14.1 5.39992C15.6 6.69992 14.7 10.9999 14.8 15.5999Z" stroke="#292B35" stroke-width="1.5" stroke-miterlimit="10"></path></svg>