<svg width="24" height="28" viewBox="0 0 24 28" fill="none" xmlns="http://www.w3.org/2000/svg"><path d="M22.5 9.53941C22.0588 13.4258 21 18.1072 18.2647 21.7287C16.7647 23.8486 14.647 25.6151 11.7353 26.7634C11.7353 26.7634 0.617616 18.0189 1.23526 15.634C1.3235 15.2807 1.41173 14.9274 1.5882 14.3975C2.20585 12.7192 3.44115 10.3344 5.64703 8.12616C8.8235 4.94635 14.0294 1.9432 22.5 1.23657C22.5882 1.23657 23.0294 4.94635 22.5 9.53941Z" stroke="white" stroke-width="2.8329" stroke-miterlimit="10" stroke-linejoin="round"></path><path d="M22.5 9.53941C22.0588 13.4258 21 18.1072 18.2647 21.7287C16.7647 23.8486 14.647 25.6151 11.7353 26.7634C11.7353 26.7634 0.617616 18.0189 1.23526 15.634C1.3235 15.2807 1.41173 14.9274 1.5882 14.3975C2.20585 12.7192 3.44115 10.3344 5.64703 8.12616C8.8235 4.94635 14.0294 1.9432 22.5 1.23657C22.5882 1.23657 23.0294 4.94635 22.5 9.53941Z" fill="#FCE3C2"></path><path d="M22.5001 9.53954C17.5589 5.21147 14.2942 6.09475 10.5001 7.77298C8.91182 8.47961 7.23535 8.56793 5.73535 8.21462C8.91182 5.03481 14.1177 2.03166 22.5883 1.32503C22.5883 1.2367 23.0295 4.94648 22.5001 9.53954Z" fill="#FCF0E0"></path><path d="M18.2647 21.7287C16.7647 23.8486 14.647 25.6151 11.7353 26.7634C11.7353 26.7634 0.617616 18.0189 1.23526 15.6341C1.3235 15.2807 1.41173 14.9274 1.5882 14.3975C2.38232 14.6624 3.0882 15.1041 3.44115 15.6341C4.5882 17.224 7.05879 16.3407 8.47056 15.6341C9.79409 14.9274 10.5882 18.1072 12.3529 20.4038C13.4117 21.6404 16.0588 21.7287 18.2647 21.7287Z" fill="#C9A47F"></path><path d="M22.6765 2.29656C22.9412 6.35965 23.3824 21.6404 12.353 26.4985C12 26.6751 11.6471 26.5868 11.3824 26.3218C9.26474 24.6436 0.794155 17.6656 1.32357 15.5458C2.20592 12.2776 6.26474 2.91486 21.6177 1.32495C22.1471 1.32495 22.5883 1.67826 22.6765 2.29656Z" stroke="#292B35" stroke-width="1.347" stroke-miterlimit="10" stroke-linejoin="round"></path><path d="M12.441 20.4039C12.441 20.4039 10.3233 20.8455 8.73509 17.8424C8.73509 17.8424 7.41156 14.2209 11.5586 10.5995C13.0586 9.36288 15.1763 8.03796 18.2645 6.97803C18.2645 6.97803 18.7939 21.2872 12.441 20.4039Z" fill="#C9A47F"></path><path d="M8.73509 17.8423C8.73509 17.8423 7.41156 14.2208 11.5586 10.5994C11.7351 10.776 11.8233 11.041 11.9998 11.306C13.0586 14.3975 12.7939 18.5489 8.73509 17.8423Z" fill="#806954"></path><path d="M8.73507 17.8424C8.73507 17.8424 6.26449 11.2178 18.2645 6.97803C18.2645 6.97803 18.7939 21.2872 12.3527 20.4039" stroke="#292B35" stroke-width="1.347" stroke-miterlimit="10" stroke-linecap="round" stroke-linejoin="round"></path></svg>