<svg width="27" height="34" viewBox="0 0 27 34" fill="none" xmlns="http://www.w3.org/2000/svg"><path d="M11.3001 8.10005C10.8001 8.10005 10.4001 7.70005 10.0001 6.90005C9.30006 5.50005 9.00006 2.80005 10.5001 0.800049C10.8001 0.500049 11.1001 0.300049 11.6001 0.300049C12.1001 0.300049 12.6001 0.600049 12.9001 1.10005C13.6001 2.50005 14.3001 4.50005 13.6001 6.10005C13.3001 7.00005 12.6001 7.60005 11.6001 8.10005C11.5001 8.10005 11.4001 8.10005 11.3001 8.10005Z" fill="#292B35"></path><path d="M11.5999 0.8C11.9999 0.8 12.3999 1 12.4999 1.4C13.3999 3.2 14.4999 6.5 11.3999 7.8H11.2999C10.2999 7.8 8.79989 3.7 10.7999 1.2C10.9999 0.9 11.2999 0.8 11.5999 0.8ZM11.5999 0C11.0999 0 10.5999 0.2 10.2999 0.6C8.49989 2.7 8.99989 5.6 9.69989 7.1C10.0999 8 10.6999 8.5 11.2999 8.5C11.3999 8.5 11.5999 8.5 11.6999 8.4C12.7999 8 13.5999 7.2 13.9999 6.2C14.6999 4.5 13.8999 2.4 13.1999 0.9C12.8999 0.4 12.2999 0 11.5999 0Z" fill="white"></path><path d="M17.9998 9.49995C17.6998 9.49995 17.2998 9.29995 17.1998 8.69995C16.9998 7.49995 17.7998 5.19995 20.7998 3.99995C21.2998 3.79995 21.6998 3.69995 22.0998 3.69995C22.5998 3.69995 22.9998 3.99995 22.9998 4.39995C23.1998 5.79995 20.1998 8.99995 18.1998 9.59995L17.9998 9.49995Z" fill="#292B35"></path><path d="M22.1 3.99995C24 3.99995 20.6 8.39995 18.1 9.09995H18C17.2 9.09995 17.1 5.79995 21 4.19995C21.5 4.09995 21.9 3.99995 22.1 3.99995ZM22.1 3.19995C21.7 3.19995 21.3 3.29995 20.7 3.49995C17.4 4.79995 16.6 7.39995 16.9 8.69995C17 9.59995 17.6 9.89995 18 9.89995C18.1 9.89995 18.2 9.89995 18.3 9.89995C20.6 9.29995 23.6 5.89995 23.4 4.29995C23.4 3.79995 23 3.19995 22.1 3.19995Z" fill="white"></path><path d="M5.9 10.7C4.9 10.7 2.5 9.6 2 6.1C2 5.2 2 4.6 2.3 4.3C2.5 4.1 2.7 4 2.9 4C4.3 4 6.8 7.7 6.9 9.9C6.9 10.1 6.8 10.3 6.7 10.4C6.5 10.6 6.3 10.7 5.9 10.7Z" fill="#292B35"></path><path d="M2.9001 4.39995C4.0001 4.39995 6.4001 7.79995 6.5001 9.99995C6.5001 10.2 6.3001 10.4 5.9001 10.4C4.9001 10.4 2.9001 9.29995 2.4001 6.09995C2.3001 4.89995 2.5001 4.39995 2.9001 4.39995ZM2.9001 3.69995C2.6001 3.69995 2.3001 3.79995 2.0001 4.09995C1.7001 4.49995 1.6001 5.09995 1.7001 6.09995C2.2001 9.49995 4.5001 11.1 5.9001 11.1C6.4001 11.1 6.7001 10.9 6.9001 10.7C7.1001 10.5 7.2001 10.2 7.2001 9.89995C7.2001 7.69995 4.6001 3.69995 2.9001 3.69995Z" fill="white"></path><path d="M25.1999 21.6C25.1999 21.9 25.0999 22.5 24.7999 23.4C23.8999 25.9 21.4999 30.1 16.9999 31.7C14.4999 32.6 11.5999 32.6 8.99987 31.8C5.69987 30.8 2.89987 28.5 1.69987 25.3C1.49987 24.8 1.49987 24.3 1.59987 23.7C1.89987 21 3.79987 12.5 11.5999 11.5C20.9999 10.3 22.5999 17.9 23.2999 18.7C23.9999 19.5 25.1999 20.3 25.1999 21.6Z" fill="#FDBF1A" stroke="white" stroke-width="3" stroke-miterlimit="10"></path><path d="M25.1999 21.6C25.1999 21.9 25.0999 22.5 24.7999 23.4C23.8999 25.9 21.4999 30.1 16.9999 31.7C14.4999 32.6 11.5999 32.6 8.99987 31.8C5.69987 30.8 2.89987 28.5 1.69987 25.3C1.49987 24.8 1.49987 24.3 1.59987 23.7C1.89987 21 3.79987 12.5 11.5999 11.5C20.9999 10.3 22.5999 17.9 23.2999 18.7C23.9999 19.5 25.1999 20.3 25.1999 21.6Z" fill="#FCE3C2"></path><path d="M24.8 23.2999C23.9 25.7999 21.5 30 17 31.6C14.5 32.5 11.6 32.5 9 31.7C8.7 30.8 8.5 29.7999 8.5 28.7999C8.5 23.7999 12.6 19.7 17.6 19.7C20.5 19.7 23.2 21.0999 24.8 23.2999Z" fill="#DEA87C"></path><path d="M12.8292 28.4672C14.2577 28.3208 15.0872 24.9954 14.682 21.0397C14.2768 17.0839 12.7903 13.9957 11.3619 14.142C9.9334 14.2884 9.10387 17.6138 9.50907 21.5695C9.91427 25.5253 11.4008 28.6135 12.8292 28.4672Z" fill="#292B35"></path><path d="M8.11588 21.3479C9.84502 20.9826 11.0617 19.8103 10.8334 18.7296C10.605 17.6489 9.01822 17.069 7.28908 17.4343C5.55995 17.7996 4.34329 18.9718 4.5716 20.0525C4.79992 21.1332 6.38675 21.7132 8.11588 21.3479Z" fill="white"></path><path d="M1.69987 25.3C1.49987 24.8 1.49987 24.3 1.59987 23.7C1.89987 21 3.79987 12.5 11.5999 11.5C20.9999 10.4 22.5999 17.9 23.2999 18.7C23.9999 19.5 25.1999 20.3 25.1999 21.6C25.1999 22.9 22.9999 29.5 16.9999 31.7C11.2999 33.8 3.89987 31 1.69987 25.3Z" stroke="#292B35" stroke-width="1.5" stroke-miterlimit="10"></path></svg>