<svg width="32" height="36" viewBox="0 0 32 36" fill="none" xmlns="http://www.w3.org/2000/svg"><path d="M14.3001 22.8998C13.4001 21.1998 13.5001 18.7998 13.5001 16.8998C13.5001 14.8998 13.4001 13.4998 11.8001 14.3998C8.70015 15.9998 9.80015 20.1998 9.80015 20.1998C9.50015 19.7998 9.40015 19.2998 9.20015 18.9998C8.90015 18.0998 8.30015 16.6998 7.60015 14.3998C7.60015 14.2998 7.60015 14.2998 7.50015 14.1998C6.00015 9.19981 6.50015 2.19981 3.10015 5.39981C0.400149 7.79981 1.40015 18.0998 3.00015 23.6998C3.50015 25.2998 4.00015 26.5998 4.50015 27.0998C6.60015 29.5998 8.30015 27.0998 10.5001 29.9998C12.7001 32.8998 14.5002 35.1998 16.2002 32.1998C17.7002 29.4998 18.6001 28.1998 17.5001 26.6998C16.7001 25.7998 16.3001 26.7998 14.3001 22.8998Z" stroke="white" stroke-width="2.8528" stroke-miterlimit="10" stroke-linejoin="round"></path><path d="M28.5004 21.6999C28.0004 19.9999 29.3004 17.0999 29.7004 15.1999C29.9004 14.2999 29.9004 13.5999 29.6004 12.9999C29.3004 12.2999 28.7004 11.7999 28.0004 11.6999C26.4004 11.4999 26.0004 13.4999 25.9004 15.0999C25.9004 15.2999 25.9004 15.7999 25.8004 16.3999C25.3004 15.1999 25.1004 13.3999 25.0004 11.3999C24.9004 7.39992 25.3004 2.79992 25.1004 2.09992C24.8004 1.09992 22.3004 1.29992 21.6004 2.09992C19.8004 4.19992 17.5004 16.7999 17.4004 21.0999C17.4004 21.4999 17.4004 21.7999 17.4004 22.0999C17.7004 24.5999 23.3004 30.4999 26.2004 31.1999C29.1004 31.8999 30.4004 26.5999 30.3004 25.4999C30.4004 24.2999 29.1004 23.3999 28.5004 21.6999Z" stroke="white" stroke-width="2.8528" stroke-miterlimit="10" stroke-linejoin="round"></path><path d="M30.4 25.4001C30.5 26.5001 29.2 31.8001 26.3 31.1001C23.4 30.4001 17.8 24.5001 17.5 22.0001C17.5 21.7001 17.5 21.4001 17.5 21.0001C17.6 16.6001 19.9 4.10007 21.7 2.00007C22.4 1.20007 24.9 1.00007 25.2 2.00007C25.4 2.60007 25 7.20007 25.1 11.3001C25.2 13.4001 25.4 15.4001 26 16.6001C26 16.6001 26 16.1001 26 15.4001C26 15.3001 26 15.2001 26 15.0001C26.1 13.5001 26.5 11.4001 28.1 11.6001C28.8 11.7001 29.4 12.2001 29.7 12.9001C29.9 13.5001 30 14.3001 29.8 15.1001C29.3 17.0001 28 19.9001 28.6 21.6001C29.1 23.4001 30.4 24.3001 30.4 25.4001Z" fill="#C9AA8B"></path><path d="M16 32.3001C14.3 35.2001 12.5 33.0001 10.3 30.1001C8.09995 27.2001 6.39995 29.6001 4.29995 27.2001C3.79995 26.6001 3.29995 25.4001 2.79995 23.8001C1.19995 18.1001 0.199954 7.80009 2.89995 5.40009C6.29995 2.30009 5.79995 9.20009 7.29995 14.2001C7.29995 14.3001 7.29995 14.3001 7.39995 14.4001C8.09995 16.7001 8.69995 18.1001 8.99995 19.0001C9.09995 19.4001 9.29995 19.8001 9.59995 20.2001C9.59995 20.2001 8.49995 16.0001 11.6 14.4001C13.2 13.6001 13.3 14.9001 13.3 16.9001C13.3 18.8001 13.2 21.2001 14.1 22.9001C16.1 26.7001 16.6 25.8001 17.3 26.8001C18.4 28.3001 17.5 29.7001 16 32.3001Z" fill="#C9AA8B"></path><path d="M7.50015 14.1C7.30015 18 7.20015 23.1 6.40015 24.6C5.60015 26 4.20015 26 3.00015 23.8C1.40015 18.1 0.400149 7.79997 3.10015 5.39997C6.50015 2.19997 6.00015 9.09997 7.50015 14.1Z" fill="#FCE3C2"></path><path d="M13.5 16.6C12.3 18.6 10.4 21.2 9.60004 19.7C9.60004 19.7 8.70004 15.5 11.9 14C13.5 13.3 13.6 14.6 13.5 16.6Z" fill="#FCE3C2"></path><path d="M16.1001 32.3C14.4001 35.2 12.6001 33 10.4001 30.1C8.20005 27.2 6.50005 29.6 4.40005 27.2C3.90005 26.6 3.40005 25.4 2.90005 23.8C1.30005 18.1 0.300052 7.79997 3.00005 5.39997C6.50005 2.19997 6.00005 9.09997 7.50005 14.1C7.50005 14.2 7.50005 14.2 7.60005 14.3C8.30005 16.7 8.90005 18.1 9.20005 18.9C9.30005 19.3 9.50005 19.7 9.80005 20.1C9.80005 20.1 8.70005 15.9 11.8001 14.3C13.4001 13.5 13.5001 14.8 13.5001 16.8C13.5001 18.7 13.4001 21.1 14.3001 22.8C16.3001 26.6 16.8001 25.7 17.5001 26.7C18.6001 28.3 17.7001 29.7 16.1001 32.3Z" stroke="#292B35" stroke-width="1.4264" stroke-miterlimit="10" stroke-linecap="round" stroke-linejoin="round"></path><path d="M25.1001 11.3001C23.5001 15.7001 21.7001 20.4001 21.0001 21.7001C19.8001 23.7001 18.9001 23.4001 17.6001 21.0001C17.7001 16.6001 20.0001 4.10007 21.8001 2.00007C22.5001 1.20007 25.0001 1.00007 25.3001 2.00007C25.4001 2.70007 25.0001 7.30007 25.1001 11.3001Z" fill="#FCE3C2"></path><path d="M29.7 13.3001C28.3 15.9001 26 17.6001 26 17.6001C26 17.1001 26 16.6001 26 16.2001C26 16.1001 26 15.9001 26 15.8001C26.1 14.0001 26.5 11.6001 28.1 11.8001C28.8 11.9001 29.4 12.4001 29.7 13.3001Z" fill="#FCE3C2"></path><path d="M25.3 18.1001C24.7 16.9001 25.2 13.4001 25.1 11.3001C25 7.30007 25.4 2.70007 25.2 2.00007C24.9 1.00007 22.4 1.20007 21.7 2.00007C19.9 4.10007 17.6 16.7001 17.5 21.0001C17.5 21.4001 17.5 21.7001 17.5 22.0001C17.8 24.5001 23.4 30.4001 26.3 31.1001C29.2 31.8001 30.5 26.5001 30.4 25.4001C30.3 24.3001 29 23.4001 28.5 21.7001C28 20.0001 29.3 17.1001 29.7 15.2001C29.9 14.3001 29.9 13.6001 29.6 13.0001C29.3 12.3001 28.7 11.8001 28 11.7001C26.4 11.5001 26 13.5001 25.9 15.1001C25.9 15.4001 25.8 18.0001 25.3 18.1001Z" stroke="#292B35" stroke-width="1.4264" stroke-miterlimit="10" stroke-linejoin="round"></path></svg>