<svg width="37" height="23" viewBox="0 0 37 23" fill="none" xmlns="http://www.w3.org/2000/svg"><path d="M1.5083 15.8662C1.5083 13.1603 6.1333 3.32072 8.54634 3.07473C10.9594 2.82874 15.7855 3.8127 19.3045 2.21377C22.8235 0.614837 34.386 3.93569 35.2909 9.96243C36.0953 15.9892 32.5762 19.064 30.1632 18.941C27.7502 18.818 19.3045 17.9571 14.6795 18.941C10.0545 20.048 6.33439 22.1389 4.82624 20.417C3.21754 18.695 1.5083 18.2031 1.5083 15.8662Z" fill="#AEA1B5" stroke="white" stroke-width="3.0911" stroke-miterlimit="10"></path><path d="M1.5083 15.8662C1.5083 13.1603 6.1333 3.32072 8.54634 3.07473C10.9594 2.82874 15.7855 3.8127 19.3045 2.21377C22.8235 0.614837 34.386 3.93569 35.2909 9.96243C36.0953 15.9892 32.5762 19.064 30.1632 18.941C27.7502 18.818 19.3045 17.9571 14.6795 18.941C10.0545 20.048 6.33439 22.1389 4.82624 20.417C3.21754 18.695 1.5083 18.2031 1.5083 15.8662Z" fill="#C9BBBB"></path><path d="M33.9836 15.4974L32.9782 18.9413C32.0733 19.5562 31.0679 19.9252 30.163 19.9252L29.1575 19.8022C26.0407 19.5562 18.8016 18.9413 14.7798 19.9252C13.3722 20.1712 12.0652 20.6632 10.9592 21.0322C9.24994 21.5242 7.74178 22.0161 6.53526 22.0161C5.63037 22.0161 4.92657 21.7702 4.32331 21.1552C3.92113 20.6632 3.41841 20.2942 3.01624 19.9252L1.00537 14.3905C1.20646 13.5295 1.60863 12.4226 2.01081 11.3156L3.01624 10.5776C3.11678 10.5776 3.11678 10.5776 3.21733 10.5776C3.31787 10.5776 3.31787 10.5776 3.41841 10.7006L3.72004 11.3156L4.12222 11.9306L8.14396 18.5723C8.2445 18.6953 8.2445 18.6953 8.34504 18.6953L9.45102 18.5723C9.55157 18.5723 9.65211 18.4493 9.65211 18.4493L11.8641 12.5456C11.9646 12.2996 12.1657 12.2996 12.2662 12.5456L14.5787 16.8504C14.6793 17.0964 14.8804 16.9734 14.9809 16.8504L17.7961 11.0696C17.8967 10.9466 18.0978 10.8236 18.1983 11.0696L20.913 15.2514C21.0135 15.3744 21.2146 15.3744 21.3152 15.2514L23.1249 11.8076C23.2255 11.6846 23.4266 11.6846 23.5271 11.8076L26.644 16.9734C26.7445 17.0964 26.7445 17.0964 26.845 17.0964L27.8505 16.9734C27.951 16.9734 28.0516 16.8504 28.0516 16.7274L29.5597 11.1926C29.6603 11.0696 29.8613 10.9466 29.9619 11.0696L33.8831 15.1284L33.9836 15.2514C33.9836 15.3744 33.9836 15.4974 33.9836 15.4974Z" fill="#FCFAF7"></path><path d="M34.6872 6.88754L33.2796 7.62551L32.4752 8.11749C32.3747 8.24048 32.2742 8.11749 32.1736 7.99449L30.8666 5.65759L29.3584 2.95171C29.2579 2.82872 29.0568 2.82872 29.0568 2.95171L28.353 4.30465L26.141 8.60947C26.0405 8.73246 25.8394 8.73246 25.7388 8.60947L23.8285 4.18166C23.728 4.05866 23.5269 4.05866 23.4263 4.18166L20.9127 8.48647C20.8122 8.60947 20.7117 8.60947 20.6111 8.48647L17.5948 5.41161C17.4943 5.28861 17.3937 5.28861 17.2932 5.41161L14.3774 9.71642C14.2769 9.83941 14.1763 9.83941 14.0758 9.71642L10.6573 5.5346C10.5568 5.41161 10.3557 5.41161 10.3557 5.65759L7.94264 11.8073C7.94264 11.9303 7.74155 11.9303 7.64101 11.8073C7.13829 11.1924 5.93177 9.83941 5.02688 8.60947C4.6247 8.11749 4.22253 7.62551 3.9209 7.37952C5.42905 4.67364 7.13829 2.33674 8.5459 2.21374C9.2497 2.21374 10.1546 2.21374 11.16 2.21374C13.6736 2.33674 16.6899 2.45973 19.103 1.47578C21.9182 0.24583 28.4535 1.72177 32.2742 4.55064C33.2796 5.16562 34.0839 6.02658 34.6872 6.88754Z" fill="#FCFAF7"></path><path d="M29.4591 2.95176C29.3586 2.82877 29.1575 2.82877 29.1575 2.95176L28.4537 4.3047C29.3586 4.67369 30.2635 5.16566 31.0678 5.65764L29.4591 2.95176ZM29.4591 2.95176C29.3586 2.82877 29.1575 2.82877 29.1575 2.95176L28.4537 4.3047C29.3586 4.67369 30.2635 5.16566 31.0678 5.65764L29.4591 2.95176ZM35.9945 9.83946C35.9945 9.47048 35.8939 9.22449 35.7934 8.8555C35.5923 8.24053 35.3912 7.74855 35.0896 7.25657C34.989 7.13358 34.8885 6.88759 34.7879 6.7646C34.1847 5.90363 33.3803 5.16566 32.2744 4.4277C28.3532 1.72181 21.9184 0.245878 19.1032 1.47583C16.6901 2.58278 13.6738 2.45978 11.1602 2.33679C10.1548 2.33679 9.24989 2.21379 8.54609 2.33679C7.23902 2.33679 5.42924 4.67369 3.92109 7.37957C3.21729 8.60952 2.61402 10.0855 2.11131 11.3154C1.60859 12.4223 1.30696 13.5293 1.10587 14.3903C1.00533 15.0052 0.904785 15.4972 0.904785 15.8662C0.904785 17.8341 2.01076 18.8181 3.11674 19.802C3.51892 20.171 4.02163 20.54 4.42381 21.032C5.02707 21.6469 5.73087 21.8929 6.63576 21.8929C7.84229 21.8929 9.35044 21.401 11.0597 20.909C12.1657 20.54 13.5733 20.171 14.8803 19.802C18.9021 18.9411 26.1412 19.433 29.258 19.679L30.2635 19.802C31.1684 19.925 32.1738 19.556 33.0787 18.8181C33.5814 18.4491 34.0841 17.9571 34.5869 17.3421C35.8939 15.6202 36.3966 12.9143 35.9945 9.83946ZM33.9836 15.3742C33.7825 15.7432 33.5814 16.1122 33.3803 16.3582C32.576 17.4651 31.2689 18.2031 30.2635 18.2031L29.3586 18.0801C26.1412 17.8341 18.8015 17.2191 14.5787 18.2031C13.1711 18.5721 11.864 18.9411 10.6575 19.3101C8.24446 20.048 6.13305 20.663 5.3287 19.802C4.82598 19.3101 4.32326 18.8181 3.92109 18.4491C2.81511 17.5881 2.31239 17.0961 2.31239 15.9892C2.31239 15.1282 2.91566 13.2833 3.72 11.4384C3.72 11.4384 3.72 11.3154 3.82055 11.3154C4.02163 10.8234 4.22272 10.4544 4.42381 9.96246C4.52435 9.47048 4.82598 9.10149 5.02707 8.60952C6.33413 6.14962 7.84229 4.05871 8.64663 4.05871C8.84772 4.05871 9.14935 4.05871 9.35044 4.05871C9.85316 4.05871 10.4564 4.05871 11.0597 4.05871C13.6738 4.18171 16.8912 4.3047 19.5053 3.07476C21.114 2.33679 24.9347 2.82877 28.3532 4.3047C29.258 4.67369 30.1629 5.16566 30.9673 5.65764C31.1684 5.78064 31.3695 5.90363 31.47 6.02663C32.0733 6.51861 32.6765 7.01058 33.2798 7.62556C33.4809 7.87155 33.682 8.11754 33.7825 8.36353C34.0841 8.85551 34.2852 9.34748 34.4863 9.96246C34.4863 10.0855 34.4863 10.0855 34.5869 10.2084C34.8885 12.5453 34.4863 14.1443 33.9836 15.3742ZM29.4591 2.95176C29.3586 2.82877 29.1575 2.82877 29.1575 2.95176L28.4537 4.3047C29.3586 4.67369 30.2635 5.16566 31.0678 5.65764L29.4591 2.95176ZM29.4591 2.95176C29.3586 2.82877 29.1575 2.82877 29.1575 2.95176L28.4537 4.3047C29.3586 4.67369 30.2635 5.16566 31.0678 5.65764L29.4591 2.95176Z" fill="#292B35"></path><path d="M35.7939 8.97864L34.4868 9.96259L32.677 11.3155C32.5765 11.4385 32.3754 11.4385 32.2748 11.3155L29.8618 8.85564C29.6607 8.73265 29.4596 8.73265 29.3591 8.97864L27.1471 14.6364C27.0466 14.8824 26.7449 15.0054 26.6444 14.7594L23.5276 10.5776C23.427 10.4546 23.1254 10.4546 23.0248 10.5776L21.4161 12.6685C21.3156 12.7915 21.1145 12.7915 20.9134 12.6685L17.9977 9.59361C17.8971 9.47062 17.696 9.47062 17.4949 9.59361L14.7803 13.2835C14.6797 13.4064 14.4786 13.5294 14.2776 13.2835L12.1661 11.0695C12.0656 10.9466 11.764 10.9466 11.6634 11.1925L8.54658 16.3583C8.44603 16.6043 8.1444 16.6043 8.04386 16.4813L4.12266 11.9305L3.72049 11.4385L3.31832 10.9466C3.21777 10.8236 3.21777 10.7006 3.21777 10.5776V10.4546L3.72049 9.34762L4.32375 9.96259L7.74223 13.7754C7.94332 13.8984 8.1444 13.8984 8.24495 13.6524L11.2613 8.36366C11.3618 8.11767 11.6634 8.11767 11.764 8.24067L14.2776 11.0695C14.3781 11.1925 14.6797 11.1925 14.7803 11.0695L17.3944 7.01072C17.4949 6.76473 17.696 6.76473 17.8971 7.01072L20.7123 10.3316C20.8129 10.4546 21.1145 10.4546 21.2151 10.3316L23.0248 7.37971C23.1254 7.13372 23.427 7.13372 23.5276 7.37971L26.0411 11.0695C26.2422 11.3155 26.4433 11.3155 26.5439 10.9466L28.8564 5.41179C28.9569 5.1658 29.2585 5.1658 29.3591 5.2888L32.2748 8.97864C32.3754 9.10163 32.5765 9.10163 32.677 9.10163L33.6824 8.24067L34.889 7.25671C35.3917 7.87169 35.5928 8.36366 35.7939 8.97864Z" fill="#292B35"></path></svg>