<svg width="33" height="29" viewBox="0 0 33 29" fill="none" xmlns="http://www.w3.org/2000/svg"><path d="M1.40024 17.7001C2.10024 13.3001 4.00024 8.70011 8.10024 8.40011C12.2002 8.10011 12.3002 11.2001 15.1002 13.0001C18.3002 15.1001 25.2002 14.9001 25.6002 10.0001C26.0002 5.10011 21.3002 6.60012 21.8002 8.30012C22.3002 10.0001 20.9002 11.7001 19.6002 10.7001C18.2002 9.80011 15.7002 7.20011 18.2002 4.20011C20.7002 1.20011 24.0002 0.400115 27.3002 2.10011C30.6002 3.80011 37.2002 17.9001 21.5002 25.0001C5.80024 32.1001 0.700236 22.0001 1.40024 17.7001Z" stroke="white" stroke-width="2.6648" stroke-miterlimit="10"></path><path d="M21.3998 25.1C5.69979 32.3 0.699786 22 1.39979 17.7C1.49979 17.1 1.59979 16.4 1.79979 15.8C2.69979 12 4.59979 8.69997 8.09979 8.39997C12.1998 8.09997 11.8998 12 15.0998 13C18.8998 14.2 25.1998 14.9 25.5998 9.99997C25.6998 7.99997 24.9998 7.09997 24.1998 6.79997C22.9998 6.39997 21.4998 7.29997 21.8998 8.29997C22.2998 9.59997 21.5998 10.9 20.5998 11C20.2998 11.1 19.9998 11 19.5998 10.8C18.1998 9.89997 15.6998 7.29997 18.1998 4.29997C20.7998 1.29997 23.9998 0.499968 27.2998 2.19997C28.2998 2.69997 29.6998 4.49997 30.5998 6.89997C32.4998 12.2 32.1998 20.3 21.3998 25.1Z" fill="#FCE3C2"></path><path d="M25.3002 7.2C24.1002 6.8 21.5002 7.4 21.8002 8.4C22.2002 9.7 21.5002 11 20.5002 11.1C19.2002 10.1 18.8002 8.7 19.7002 7.5C20.9002 6 24.1002 5.7 25.0002 6.6C25.1002 6.8 25.2002 7 25.3002 7.2Z" fill="#C9AA8B"></path><path d="M21.3998 25.1C5.69979 32.3 0.699786 22 1.39979 17.7C1.49979 17.1 1.59979 16.4 1.79979 15.8C5.39979 19.1 8.79979 25.2 19.9998 20.9C27.9998 17.9 29.9998 10.7 30.5998 7C32.4998 12.2 32.1998 20.3 21.3998 25.1Z" fill="#C9A47F"></path><path d="M1.40024 17.7001C2.10024 13.3001 4.00024 8.70011 8.10024 8.40011C12.2002 8.10011 12.3002 11.2001 15.1002 13.0001C18.3002 15.1001 25.2002 14.9001 25.6002 10.0001C26.0002 5.10011 21.3002 6.60012 21.8002 8.30012C22.3002 10.0001 20.9002 11.7001 19.6002 10.7001C18.2002 9.80011 15.7002 7.20011 18.2002 4.20011C20.7002 1.20011 24.0002 0.400115 27.3002 2.10011C30.6002 3.80011 37.2002 17.9001 21.5002 25.0001C5.80024 32.1001 0.700236 22.0001 1.40024 17.7001Z" stroke="#292B35" stroke-width="1.267" stroke-miterlimit="10"></path></svg>